<svg xmlns="http://www.w3.org/2000/svg" viewBox="0 0 4400 1380" font-family="'Neue Montreal', 'Inter Display', 'Helvetica Neue', Arial, sans-serif">
  <!-- Nerumi — Mark + wordmark, no tagline -->
  <g transform="translate(0,0)">
    <g><path d="M808.4,709.81c-.59,1.08-1.22,2.13-1.88,3.16-9.85,15.35-19.52,31.28-23,49.44-3.29,17-1,34.63-4.57,51.52-3.78,17.77-14,33.73-26.79,46.61-25.84,26-66.38,50.41-104.35,41.29-28.48-6.84-49.93-33-55.84-61.72s2-59,16.89-84.2c13.49-22.89,33.49-42.73,57.54-53.46a79,79,0,0,0-32.19-4.9c-37,2.29-67.86,28.46-92.95,55.73a568.15,568.15,0,0,0-143.71,305.53c-13.7,100.43.51,204.47,40.17,297.71,5.79,13.62-8.21,27.19-21.69,21.07-51.39-23.37-95.83-62-127.83-108.68-39.69-57.9-60.71-127.62-64.43-197.72-4.42-83.37,15.66-168.42,60-239.14,34-54.12,81.72-98.73,136.17-131.82,47.55-28.9,110.61-59.19,167.26-62.91-15.09.83-100.33,3.65-148-49-38.88-42.9-38.82-102.29-27.78-155.94,5.37-26.11,35.85-24.35,48.69-43.74C484.05,352.51,445.72,287.4,426.84,256c-28.84-48-71-89.3-121.62-113.8-82.84-40.06-208.17-33.76-261.67,51.14-1.08,1.71-2.13,3.46-3.13,5.22C28.24,219.84-4.29,207.93.47,183.84l.3-1.52c8.15-38.95,32.74-72.74,61.68-100,37.82-35.69,84.42-62.52,135-74.59,55.74-13.29,114.8-8.4,169.85,7.53C490,50.72,603.42,132.87,684.89,230.15a588.62,588.62,0,0,1,137.39,363.4c.56,23.29.42,46.68-2.33,69.84C818.16,678.52,815.88,696.15,808.4,709.81Z" fill="#0D0D0D"/></g>
    <g><path d="M860.3,709.81c.6,1.08,1.22,2.13,1.88,3.16,9.85,15.35,19.52,31.28,23,49.44,3.29,17,1,34.63,4.58,51.52,3.77,17.77,14,33.73,26.78,46.61,25.84,26,66.38,50.41,104.35,41.29,28.48-6.84,49.93-33,55.84-61.72s-2-59-16.89-84.2c-13.49-22.89-33.49-42.73-57.54-53.46a79,79,0,0,1,32.19-4.9c37,2.29,67.86,28.46,93,55.73a568.15,568.15,0,0,1,143.71,305.53c13.7,100.43-.51,204.47-40.17,297.71-5.79,13.62,8.21,27.19,21.69,21.07,51.39-23.37,95.83-62,127.83-108.68,39.69-57.9,60.71-127.62,64.43-197.72,4.42-83.37-15.66-168.42-60-239.14-34-54.12-81.72-98.73-136.17-131.82-47.55-28.9-110.61-59.19-167.26-62.91,15.09.83,100.33,3.65,148-49,38.88-42.9,38.82-102.29,27.78-155.94-5.37-26.11-35.85-24.35-48.69-43.74C1184.65,352.51,1223,287.4,1241.86,256c28.84-48,71-89.3,121.62-113.8,82.84-40.06,208.17-33.76,261.67,51.14,1.08,1.71,2.13,3.46,3.13,5.22,12.18,21.33,44.71,9.42,40-14.67l-.3-1.52c-8.15-38.95-32.74-72.74-61.68-100-37.82-35.69-84.42-62.52-135-74.59-55.74-13.29-114.8-8.4-169.85,7.53-122.72,35.51-236.11,117.66-317.58,214.94a588.62,588.62,0,0,0-137.39,363.4c-.56,23.29-.41,46.68,2.33,69.84C850.54,678.52,852.82,696.15,860.3,709.81Z" fill="#0D0D0D"/></g>
  </g>
  <!-- NERUMI in Neue Montreal Bold, vertically centered to mark -->
  <text x="1900" y="850" font-size="640" font-weight="700" letter-spacing="20" font-family="'Neue Montreal', 'Inter Display', 'Helvetica Neue', Arial, sans-serif" fill="#0D0D0D">NERUMI</text>
</svg>
